<?xml version="1.0" encoding="utf-8"?>
<!-- Generator: Adobe Illustrator 23.1.0, SVG Export Plug-In . SVG Version: 6.00 Build 0)  -->
<svg version="1.1" xmlns="http://www.w3.org/2000/svg" xmlns:xlink="http://www.w3.org/1999/xlink" x="0px" y="0px"
	 viewBox="0 0 1920 1080" style="enable-background:new 0 0 1920 1080;" xml:space="preserve">
<style type="text/css">
	.st0{display:none;}
	.st1{display:inline;fill:#030F33;}
	.st2{display:inline;}
	.st3{filter:url(#Adobe_OpacityMaskFilter);}
	.st4{fill:url(#SVGID_1_);}
	.st5{mask:url(#ArtWork_1_);}
	.st6{opacity:0.35;}
	.st7{fill:#004D84;}
	.st8{opacity:0.75;}
	.st9{opacity:0.9;}
	.st10{display:none;fill:#004D84;stroke:#364CA0;stroke-miterlimit:10;}
	.st11{fill:#FFFFFF;stroke:#FFFFFF;stroke-width:0.3691;stroke-miterlimit:10;}
	.st12{fill:#FFFFFF;stroke:#FFFFFF;stroke-width:0.6992;stroke-miterlimit:10;}
	.st13{fill:#FFFFFF;stroke:#FFFFFF;stroke-width:1.1801;stroke-miterlimit:10;}
</style>
<g id="BG">
	<g>
		<path d="M1919,1v1078H1V1H1919 M1920,0H0v1080h1920V0L1920,0z"/>
	</g>
	<g class="st0">
		<rect x="0.5" y="0.5" class="st1" width="1919" height="1079"/>
		<path class="st2" d="M1919,1v1078H1V1H1919 M1920,0H0v1080h1920V0L1920,0z"/>
	</g>
</g>
<defs>
	<filter id="Adobe_OpacityMaskFilter" filterUnits="userSpaceOnUse" x="-724.56" y="-57.85" width="2758.56" height="1292.62">
		<feColorMatrix  type="matrix" values="1 0 0 0 0  0 1 0 0 0  0 0 1 0 0  0 0 0 1 0"/>
	</filter>
</defs>
<mask maskUnits="userSpaceOnUse" x="-724.56" y="-57.85" width="2758.56" height="1292.62" id="ArtWork_1_">
	<g class="st3">
		<radialGradient id="SVGID_1_" cx="936" cy="354" r="250" gradientUnits="userSpaceOnUse">
			<stop  offset="0.1568" style="stop-color:#FFFFFF"/>
			<stop  offset="0.2315" style="stop-color:#F8F8F8"/>
			<stop  offset="0.3402" style="stop-color:#E5E5E5"/>
			<stop  offset="0.4698" style="stop-color:#C5C5C5"/>
			<stop  offset="0.6154" style="stop-color:#999898"/>
			<stop  offset="0.7745" style="stop-color:#615F5F"/>
			<stop  offset="0.9423" style="stop-color:#1D1B1B"/>
			<stop  offset="1" style="stop-color:#040202"/>
		</radialGradient>
		<circle class="st4" cx="936" cy="354" r="250"/>
	</g>
</mask>
<g id="ArtWork" class="st5">
	<g class="st6">
		<path class="st7" d="M-487.62,735.52c-0.28-0.43-0.57-0.86-0.84-1.29c0.14,1.23,0.24,2.46,0.34,3.69
			C-487.97,737.11-487.79,736.32-487.62,735.52z"/>
		<path class="st7" d="M-102.72,864.7c1.25,0.41,2.49,0.85,3.72,1.32c-0.07-0.48-0.13-0.95-0.19-1.43
			C-100.37,864.66-101.55,864.7-102.72,864.7z"/>
		<path class="st7" d="M1082.18,551.89c1.74-1.25,3.54-2.41,5.38-3.51c-0.63-0.77-1.23-1.55-1.84-2.34
			C1084.7,548.11,1083.52,550.07,1082.18,551.89z"/>
		<path class="st7" d="M-270.7,605.82c0.97,3.72,1.78,7.51,2.4,11.4c0.63,3.97,1.03,7.92,1.26,11.83c0.33,0.15,0.66,0.29,0.99,0.45
			c-0.41-1.81-0.78-3.65-1.07-5.51c-1.03-6.5-1.32-12.93-0.94-19.17C-268.94,605.18-269.82,605.51-270.7,605.82z"/>
		<path class="st7" d="M1060.95,486.56c-0.16-1.13-0.33-2.27-0.46-3.4c-1.98,0.93-4.01,1.76-6.07,2.52
			C1056.63,485.75,1058.82,486.04,1060.95,486.56z"/>
		<path class="st7" d="M1480.78,594.47c-7.03-44.35-44.05-75.34-82.69-69.22c-6.47,1.03-12.57,3.05-18.22,5.88
			c4.54-10.77,6.24-23.32,4.19-36.28c-4.31-27.24-23.8-47.7-46.64-51.54c-8.94-20.69-23.54-37.38-41.07-47.78
			c-13.17-27.28-40.13-44.11-68.03-39.69c-1.85,0.29-3.67,0.69-5.45,1.16c-7.46-7.99-17.82-12.27-28.45-10.58
			c-9.12,1.45-16.71,7-21.6,14.81c-0.03-0.01-0.07-0.02-0.1-0.02c-7.12-29.37-32.61-49.21-59.16-45
			c-8.4,1.33-15.94,4.93-22.27,10.16c-19.94-27.49-51.35-43.13-83.69-38c-25.39,4.02-46.29,20.04-59.16,42.38
			c-11.91-21.08-33.78-33.71-56.36-30.13c-3.29,0.52-6.45,1.38-9.48,2.52c-4.65-8.96-13.68-14.44-23.03-12.95
			c-2.37,0.38-4.58,1.18-6.59,2.32c-11.15-5.07-23.46-7.05-35.94-5.07c-38.01,6.02-63.23,46.27-56.32,89.9
			c1.56,9.85,4.64,19.03,8.89,27.27c-0.36,0.05-0.72,0.08-1.08,0.14c-17.67,2.8-33.26,11.15-45.69,23.3
			c-4.72-1.06-9.58-1.53-14.51-1.31c-20.3-30.81-54.12-48.71-88.97-43.19c-29.69,4.7-53.42,25.33-65.85,53.32
			c-17-20.05-41.69-31.04-67.04-27.02c-19.3,3.06-35.56,14.26-46.62,30.16c-17.9-32.57-51.37-52.2-85.95-46.72
			c-25.48,4.04-46.17,20.85-58.08,44.01c-19.56-26.3-49.18-41.95-80.28-39.82c-5-0.64-10.11-0.59-15.27,0.22
			c-7.95,1.26-15.24,4.24-21.68,8.55c-13.05-12.73-30.48-19.36-48.33-16.53c-12.94,2.05-24.13,8.76-32.55,18.44
			c-14.46-5.84-30.18-7.97-46.11-5.45c-22.45,3.56-41.66,15.75-55.59,33.23c-12.62-8.53-27.61-12.47-42.88-10.05
			c-15.01,2.38-27.86,10.52-37.19,22.2c-2.98,0.06-5.98,0.3-8.99,0.78c-22.48,3.56-40.8,18.2-51.58,38.43
			c-24.14,5.3-42.54,24.83-49.76,49.88c-5.99-0.92-12.15-0.97-18.36,0.01c-6.66,1.05-12.9,3.21-18.64,6.26
			c-0.05-3.64-0.35-7.33-0.94-11.05c-5.82-36.77-36.52-62.46-68.55-57.38c-8.48,1.34-16.2,4.73-22.87,9.63
			c-19.68-21.18-47.08-32.52-75.19-28.06c-28.43,4.5-51.19,24.13-63.26,50.82c-11.3-10.65-26.03-16.36-41.23-14.65
			c-14.94-10.18-32.74-14.9-50.88-12.03c-40.08,6.35-67.15,47.43-62.37,93.12c-11.87,18.72-17.24,42.93-13.24,68.14
			c0.93,5.88,2.35,11.54,4.16,16.96c-13.92,10.53-24.63,25.62-30.88,43.23c-45.82,12.69-75.12,63.63-66.42,118.58
			c3.74,23.64,13.96,44.4,28.15,60.22c-0.11,4.47,0.17,9.04,0.9,13.66c1.5,9.44,4.69,18.12,9.14,25.7
			c-8.89,14.11-12.89,32.34-9.89,51.3c5.99,37.8,37.54,64.21,70.48,59c0.86-0.14,1.71-0.31,2.56-0.48
			c-11.64,18.28-16.91,41.95-13.01,66.6c7.73,48.81,48.48,82.92,91.01,76.18c17.96-2.84,33.34-12.53,44.57-26.43
			c9.86,16.09,23.69,28.57,39.5,35.81c20.58,28.29,52.96,44.36,86.28,39.08c36.99-5.86,64.74-36.38,73-75.1
			c1.53-1.48,3-3.04,4.42-4.64c0.86,2.87,1.85,5.67,2.96,8.39c11.91,54.37,58.56,91.44,107.19,83.74
			c46.45-7.36,78.55-53,76.58-105.34c12.04,7.89,26.24,11.5,40.71,9.21c11.99-1.9,22.55-7.6,30.95-15.88
			c11.54,3.82,23.77,5.33,36.19,4.05c13.11,7.93,28.3,11.45,43.76,9c2.42-0.38,4.79-0.91,7.11-1.56
			c14.43,30.47,44.37,49.32,75.36,44.41c32.01-5.07,55.11-33.89,58.31-68.82c19.66-12.17,34.64-31.91,42.59-55.46
			c2.57-0.04,5.15-0.21,7.73-0.53c5.28,14.6,13.22,27.51,23.02,38.06c10.41,26.27,35.13,42.98,60.76,38.92
			c5.46-0.87,10.59-2.63,15.3-5.12c8.5,10.85,21.35,16.91,34.56,14.81c8.23-1.3,15.36-5.58,20.7-11.75
			c6.81,1.4,13.88,1.64,21.01,0.51c11.98-1.9,22.62-7.39,31.27-15.36c20.03,23.27,48.92,35.97,78.57,31.27
			c11.12-1.76,21.37-5.84,30.48-11.71c10.9,2.72,22.32,3.35,33.85,1.53c28.77-4.56,52.18-23.43,65.81-49.47
			c20.43,30.44,54.1,48.04,88.78,42.55c17.33-2.74,32.63-10.9,44.86-22.76c19.26-4.28,34.11-19.42,40.59-39.06
			c0.56,0,1.11-0.01,1.67-0.02c6.02,7.27,13,13.42,20.63,18.25c15.22,44.24,55.69,72.96,97.71,66.3
			c34.79-5.51,61.06-33.76,69.53-69.86c6.7,3.9,13.79,6.94,21.14,9.02c13.9,44.47,53.89,73.7,95.47,67.11
			c40.39-6.4,68.92-44.47,70.04-89.35c9.59,12.66,24.34,19.78,39.51,17.37c23.22-3.68,38.63-28.27,34.41-54.92
			c-3.32-20.98-17.81-36.97-35.16-41.04c0.9-4.45,1.4-9.07,1.47-13.78c3.22,1.23,6.49,2.29,9.82,3.12
			c19.15,37.85,57.07,60.99,96.28,54.78c50.3-7.97,83.67-61.23,74.52-118.96c-0.02-0.15-0.06-0.3-0.08-0.45
			c30.25-11.95,48.91-47.37,42.89-85.4c-0.22-1.36-0.46-2.71-0.73-4.04c26.99-20.34,42.03-57.81,35.73-97.55
			c-4.14-26.14-16.76-48.48-34.01-63.86C1477.94,644.7,1484.85,620.17,1480.78,594.47z M-102.72,864.7
			c1.17,0.01,2.34-0.04,3.52-0.11c0.06,0.48,0.12,0.95,0.19,1.43C-100.23,865.54-101.47,865.1-102.72,864.7z M-487.62,735.52
			c-0.17,0.8-0.35,1.59-0.51,2.39c-0.1-1.23-0.2-2.45-0.34-3.69C-488.19,734.67-487.9,735.09-487.62,735.52z M1087.56,548.38
			c-1.84,1.09-3.64,2.26-5.38,3.51c1.34-1.82,2.52-3.77,3.54-5.85C1086.33,546.82,1086.94,547.61,1087.56,548.38z M1060.95,486.56
			c-2.13-0.52-4.32-0.81-6.53-0.88c2.06-0.76,4.09-1.59,6.07-2.52C1060.62,484.3,1060.79,485.43,1060.95,486.56z M-266.07,629.5
			c-0.33-0.16-0.66-0.3-0.99-0.45c-0.23-3.91-0.63-7.86-1.26-11.83c-0.62-3.89-1.43-7.68-2.4-11.4c0.89-0.31,1.76-0.64,2.63-1
			c-0.38,6.24-0.09,12.66,0.94,19.17C-266.84,625.85-266.47,627.68-266.07,629.5z"/>
	</g>
	<g class="st8">
		<path class="st7" d="M278.93,522.7c-0.19-0.35-0.38-0.7-0.56-1.05c-0.05,0.93-0.13,1.85-0.22,2.76
			C278.4,523.83,278.66,523.27,278.93,522.7z"/>
		<path class="st7" d="M600.22,663.26c1.04,0.45,2.08,0.92,3.09,1.41c0-0.36,0.02-0.72,0.03-1.08
			C602.29,663.51,601.25,663.41,600.22,663.26z"/>
		<path class="st7" d="M1688.53,570.77c1.71-0.72,3.46-1.37,5.24-1.96c-0.44-0.64-0.87-1.29-1.3-1.95
			C1691.28,568.27,1689.96,569.58,1688.53,570.77z"/>
		<path class="st7" d="M488.28,452.22c0.33,2.86,0.52,5.76,0.52,8.71c0,3.01-0.2,5.97-0.55,8.89c0.27,0.15,0.54,0.29,0.81,0.45
			c-0.1-1.39-0.17-2.79-0.17-4.2c0-4.93,0.64-9.71,1.85-14.28C489.92,451.95,489.1,452.09,488.28,452.22z"/>
		<path class="st7" d="M1678.94,519.99c0.02-0.86,0.03-1.72,0.07-2.57c-1.87,0.45-3.78,0.83-5.7,1.15
			C1675.25,518.88,1677.13,519.36,1678.94,519.99z"/>
		<path class="st7" d="M2034,648.92c0-33.61-28.31-60.86-63.24-60.86c-5.85,0-11.51,0.78-16.88,2.21
			c5.51-7.43,8.76-16.51,8.76-26.33c0-20.64-14.32-38.05-33.92-43.56c-4.99-16.35-15.53-30.39-29.53-40.13
			c-7.81-21.71-29.22-37.31-54.44-37.31c-1.68,0-3.33,0.08-4.97,0.22c-5.46-6.78-14-11.15-23.6-11.15c-8.24,0-15.71,3.22-21.11,8.42
			c-0.03-0.01-0.06-0.02-0.09-0.03c-2.17-22.54-21.88-40.2-45.87-40.2c-7.59,0-14.74,1.78-21.05,4.9
			c-13.74-22.66-39.25-37.9-68.48-37.9c-22.95,0-43.61,9.4-58.08,24.4c-7.56-16.98-25.07-28.88-45.48-28.88
			c-2.97,0-5.88,0.27-8.71,0.75c-2.85-7.17-10.04-12.27-18.49-12.27c-2.14,0-4.2,0.34-6.13,0.94c-9.12-5.05-19.69-7.96-30.98-7.96
			c-34.35,0-62.2,26.8-62.2,59.86c0,7.47,1.43,14.61,4.03,21.2c-0.32,0-0.64-0.02-0.97-0.02c-15.97,0-30.88,4.35-43.53,11.87
			c-4.01-1.34-8.23-2.25-12.61-2.67c-13.6-25.15-40.91-42.35-72.41-42.35c-26.83,0-50.63,12.47-65.5,31.71
			c-12.18-16.82-32.42-27.83-55.33-27.83c-17.44,0-33.34,6.38-45.31,16.84c-11.23-26.18-38-44.6-69.25-44.6
			c-23.02,0-43.61,10.01-57.35,25.74c-13.57-21.73-37.5-36.77-65.21-38.84c-4.31-1.06-8.83-1.62-13.49-1.62
			c-7.18,0-14.03,1.35-20.31,3.78c-9.73-10.94-24.16-17.88-40.3-17.88c-11.7,0-22.5,3.65-31.27,9.82
			c-11.93-6.01-25.49-9.42-39.89-9.42c-20.29,0-38.92,6.76-53.65,18.05c-9.93-7.78-22.6-12.45-36.4-12.45
			c-13.57,0-26.03,4.52-35.89,12.06c-2.64-0.3-5.31-0.48-8.04-0.48c-20.31,0-38.51,8.67-50.84,22.37
			c-22.02,1.09-40.97,13.37-50.83,31.05c-5.15-1.38-10.58-2.14-16.19-2.14c-6.02,0-11.82,0.86-17.3,2.45
			c0.46-2.69,0.71-5.46,0.71-8.28c0-27.86-23.47-50.45-52.42-50.45c-7.67,0-14.94,1.6-21.51,4.44
			c-14.4-17.97-36.97-29.55-62.37-29.55c-25.69,0-48.5,11.85-62.87,30.16c-8.47-9.2-20.66-15.14-34.31-15.66
			c-11.75-9.28-26.79-14.85-43.17-14.85c-36.22,0-65.82,27.2-67.99,61.54c-13.08,12.45-21.19,29.72-21.19,48.82
			c0,4.46,0.46,8.81,1.3,13.03c-13.74,6.16-25.3,16.06-33.26,28.34c-42.17,4.01-75.11,38.24-75.11,79.88
			c0,17.92,6.1,34.46,16.41,47.82c-0.73,3.29-1.11,6.7-1.11,10.2c0,7.15,1.61,13.94,4.47,20.07c-9.81,9.39-15.88,22.4-15.88,36.77
			c0,28.65,24.13,51.87,53.9,51.87c0.78,0,1.55-0.03,2.32-0.06c-12.82,12.15-20.77,29.03-20.77,47.71
			c0,36.99,31.16,66.98,69.6,66.98c16.23,0,31.14-5.36,42.98-14.32c6.44,13.05,16.9,23.9,29.82,31.1c14.2,23.32,40.49,39,70.61,39
			c33.43,0,62.16-19.31,74.85-46.97c1.56-0.91,3.07-1.9,4.55-2.91c0.35,2.22,0.84,4.41,1.43,6.55
			c2.91,41.58,38.86,74.45,82.81,74.45c41.98,0,76.65-29.98,82.22-68.91c9.52,7.24,21.53,11.57,34.6,11.57
			c10.83,0,20.94-2.98,29.5-8.11c9.64,4.18,20.21,6.72,31.34,7.23c10.45,7.4,23.35,11.78,37.32,11.78c2.19,0,4.35-0.11,6.48-0.32
			c8.46,24.21,32.23,41.66,60.24,41.66c28.93,0,53.32-18.6,61.02-44.05c19.03-6.69,34.99-19.53,45.3-36.01
			c2.27,0.27,4.57,0.45,6.89,0.51c2.62,11.41,7.82,21.88,14.98,30.83c5.51,20.64,24.97,35.89,48.13,35.89c4.94,0,9.7-0.7,14.2-1.99
			c5.98,9.02,16.46,15,28.4,15c7.44,0,14.32-2.33,19.89-6.26c5.81,1.83,12.01,2.83,18.45,2.83c10.83,0,20.97-2.81,29.71-7.69
			c14.41,19.55,38.1,32.32,64.9,32.32c10.05,0,19.66-1.81,28.51-5.08c9.23,3.29,19.21,5.09,29.63,5.09c26,0,49.27-11.21,64.92-28.87
			c13.76,24.9,40.98,41.85,72.33,41.85c15.66,0,30.29-4.24,42.73-11.57c17.58-0.91,32.78-10.36,41.24-24.12
			c0.49,0.07,0.98,0.12,1.47,0.18c4.29,6.08,9.58,11.45,15.64,15.9c7.24,34.49,38.91,60.46,76.88,60.46
			c31.44,0,58.54-17.81,71.05-43.5c5.36,3.67,11.19,6.75,17.38,9.14c6.05,34.5,37.22,60.79,74.79,60.79
			c36.5,0,66.97-24.81,74.22-57.85c6.68,10.48,18.7,17.47,32.41,17.47c20.99,0,38-16.37,38-36.57c0-15.9-10.54-29.42-25.26-34.46
			c1.42-3.19,2.5-6.54,3.22-10.02c2.66,1.29,5.4,2.45,8.22,3.45c11.6,30.22,41.8,51.77,77.23,51.77c45.46,0,82.31-35.47,82.31-79.21
			c0-0.11-0.01-0.23-0.01-0.34c28.34-5.29,49.74-29.29,49.74-58.11c0-1.03-0.03-2.06-0.08-3.07c26.64-11.88,45.13-37.82,45.13-67.93
			c0-19.81-8.01-37.8-21.06-51.19C2024.48,685.73,2034,668.4,2034,648.92z M600.22,663.26c1.03,0.14,2.07,0.25,3.12,0.33
			c-0.01,0.36-0.02,0.72-0.03,1.08C602.3,664.18,601.27,663.71,600.22,663.26z M278.93,522.7c-0.26,0.57-0.53,1.13-0.78,1.71
			c0.08-0.92,0.17-1.84,0.22-2.76C278.55,522,278.74,522.35,278.93,522.7z M1693.77,568.8c-1.78,0.59-3.52,1.25-5.24,1.96
			c1.43-1.19,2.75-2.49,3.94-3.91C1692.9,567.51,1693.32,568.16,1693.77,568.8z M1678.94,519.99c-1.81-0.63-3.69-1.11-5.64-1.41
			c1.92-0.32,3.83-0.7,5.7-1.15C1678.96,518.28,1678.95,519.13,1678.94,519.99z M489.06,470.26c-0.27-0.15-0.54-0.3-0.81-0.45
			c0.35-2.92,0.55-5.88,0.55-8.89c0-2.95-0.19-5.85-0.52-8.71c0.83-0.13,1.64-0.27,2.46-0.43c-1.21,4.57-1.85,9.35-1.85,14.28
			C488.88,467.48,488.95,468.87,489.06,470.26z"/>
	</g>
	<g class="st9">
		<path class="st7" d="M-622.58,735.27c0.01,0.06,0.02,0.11,0.03,0.17c0.91-0.39,1.83-0.76,2.77-1.1c0.16-1.17,0.35-2.32,0.59-3.47
			C-620.26,732.38-621.39,733.85-622.58,735.27z"/>
		<path class="st7" d="M-664.55,626.47c-0.34-0.33-0.67-0.68-1.01-1.01c-0.87,0.2-1.74,0.39-2.63,0.56
			C-666.96,626.14-665.75,626.29-664.55,626.47z"/>
		
			<ellipse transform="matrix(0.994 -0.109 0.109 0.994 -62.5229 65.0834)" class="st7" cx="564.06" cy="604.44" rx="25.47" ry="25.07"/>
		<path class="st7" d="M1541.49,509.74c-7.47,0.82-13.77,4.89-17.62,10.62c-5.32-9.74-16.27-15.82-28.14-14.52
			c-2.81,0.31-5.47,1.01-7.95,2.04c1.62-3.66,2.8-7.52,3.48-11.54c8.21-9.37,12.61-21.92,11.16-35.17
			c-2.78-25.32-25.88-43.56-51.61-40.74c-7.14,0.78-13.73,3.11-19.47,6.6c0.27-3.72,0.23-7.51-0.19-11.35
			c-3.78-34.48-35.24-59.31-70.27-55.47c-35.03,3.84-60.36,34.9-56.58,69.38c0.03,0.28,0.08,0.55,0.11,0.82
			c-11.52-5.8-24.84-8.46-38.68-6.94c-12.95,1.42-24.66,6.3-34.3,13.6c-5.29-2.72-11.09-4.53-17.19-5.3
			c-9.09-6.37-19.46-11-30.57-13.5c-7.26-2.36-14.99-3.63-22.97-3.61c-15.05-9.89-33.59-14.82-53.02-12.69
			c-3.28,0.36-6.47,0.93-9.61,1.66c-11.42-3.71-23.8-5.14-36.55-3.74c-7.35,0.81-14.38,2.5-21,4.95
			c-12.53-5.8-26.79-8.38-41.58-6.75c-9.12,1-17.7,3.53-25.52,7.27c-9.38-5.36-20.53-7.91-32.16-6.64
			c-12.44,1.36-23.4,6.9-31.6,15.02c-18.92,5.2-33.52,19.6-39.17,37.53c-0.38,0.1-0.75,0.19-1.13,0.29
			c-10.1-33.38-43.25-55.88-79.72-51.88c-16.95,1.86-31.95,9.16-43.43,19.92c-12.8-5.13-27.06-7.28-41.79-5.66
			c-7.33,0.8-14.35,2.5-20.95,4.95c-5.3-39.95-42.09-68.51-83.01-64.02c-31.78,3.48-56.8,25.89-64.77,54.53
			c-10.95,1.89-20.46,7.39-27.37,15.11c-4.79-3.1-10.67-4.63-16.82-3.96c-14.04,1.54-24.2,13.99-22.68,27.81
			c0.05,0.43,0.1,0.85,0.17,1.27c-1.52-0.06-3.05-0.05-4.59-0.02c0.06-1.05,0.06-2.12-0.06-3.2c-1.17-10.64-10.88-18.31-21.69-17.12
			c-0.19,0.02-0.38,0.06-0.57,0.09c-6.97-38.9-43.49-66.25-83.99-61.81c-27.24,2.99-49.59,19.63-60.83,42.21
			c-12.74-6.15-27.35-8.94-42.52-7.28c-42.49,4.66-73.21,42.33-68.63,84.15c2.79,25.48,18.07,46.6,39.18,58.17
			c-8.43,1.06-16.12,4.15-22.61,8.71c-3.63-5.27-10.04-8.44-16.93-7.68c-9.94,1.09-17.12,9.9-16.05,19.68
			c0.42,3.85,2.08,7.27,4.52,9.94c-8.23,1.14-14.12,8.51-13.22,16.69c0.91,8.33,8.52,14.33,16.98,13.4
			c1.74-0.19,3.37-0.67,4.87-1.37c4.25,19.04,19.55,33.44,38.37,37.28c8.49,24.76,31.09,42.47,57.57,45
			c-34.43,6.64-58.59,38.27-54.76,73.19c0.3,2.72,0.78,5.38,1.39,7.97c-2.55,6.16-3.64,13-2.86,20.07
			c2.49,22.69,23.19,39.03,46.25,36.51c5.91-0.65,11.39-2.48,16.25-5.22c4.57,0.42,9.25,0.4,13.99-0.12
			c8.33-0.91,16.14-3.28,23.22-6.79c-2.37,3.09-4.42,6.42-6.08,9.95c-4.73,9.34-6.9,20.06-5.68,31.19
			c3.39,30.95,31.63,53.24,63.08,49.79c28.98-3.18,50.54-27.11,51.1-55.06c7.55-3.79,14.02-9.26,18.96-15.85
			c3.82,0.27,7.7,0.28,11.63,0.01c2.52,0.33,5.12,0.37,7.77,0.08c4.58-0.5,8.83-1.94,12.58-4.08c10.55-3.49,20.05-9.03,28.1-16.07
			c2.87-0.03,5.77-0.2,8.69-0.52c12.88-1.41,24.76-5.6,35.12-11.87c6.36,8.38,15.94,14.12,26.74,15.63
			c5.3,6.3,12.59,10.83,20.82,12.73c-10.1,13.76-15.27,31.1-13.28,49.27c4.27,38.96,39.83,67.03,79.42,62.69
			c37.53-4.12,65.19-35.89,64.33-72.37c11.82,12.57,29.12,19.85,47.69,18.53c12.91,8.07,28.44,12.28,44.76,11.17
			c9.12,41.3,48.63,69.91,92.3,65.12c42.64-4.68,74.49-39.58,75.93-80.59c6.19,2.35,13.02,3.32,20.08,2.55
			c5.31-0.58,10.28-2.11,14.78-4.37c14.17,8.16,31.04,12.05,48.64,10.13c4.15-0.46,8.19-1.22,12.1-2.27
			c11.15,37.9,48.64,63.52,89.9,58.99c29.55-3.24,53.85-21.16,66.26-45.55c4.04,0.32,8.15,0.37,12.3,0.12
			c14.67,20.84,40.19,33.28,67.64,30.27c12.48-1.37,23.88-5.77,33.52-12.37c35.04-5.75,62.02-32.01,69.53-64.72
			c2.2-1.17,4.04-2.85,5.38-4.88c7.88,1.83,16.2,2.4,24.71,1.47c28.93-3.17,52.04-22.68,60.87-48.14
			c23.99-5.33,40.65-27.66,37.95-52.27c-1.18-10.74-5.86-20.26-12.81-27.58c-4.33-23.09-21.01-41.28-42.47-48.59
			c10.59-16.09,15.86-35.72,13.61-56.23c-1.86-16.95-8.61-32.19-18.7-44.54c-0.05-0.62-0.09-1.25-0.16-1.87
			c-0.48-4.36-1.29-8.61-2.38-12.73c4.5,2,9.58,2.89,14.85,2.31c9.74-1.07,17.81-6.86,22.09-14.79c4.86,7.13,13.48,11.42,22.76,10.4
			c13.31-1.46,22.94-13.26,21.5-26.36C1566.76,517.72,1554.8,508.28,1541.49,509.74z M347.03,793.84c-0.93,0.35-1.86,0.71-2.77,1.1
			c-0.01-0.06-0.02-0.11-0.03-0.17c1.19-1.42,2.32-2.89,3.38-4.41C347.39,791.51,347.19,792.67,347.03,793.84z M302.27,685.97
			c-1.2-0.18-2.41-0.33-3.63-0.45c0.88-0.17,1.76-0.36,2.63-0.56C301.6,685.29,301.92,685.64,302.27,685.97z"/>
	</g>
	<polygon class="st10" points="238.62,316.49 122.06,273.29 5.5,230.1 101.19,150.76 196.88,71.41 217.75,193.95 	"/>
	<polygon class="st10" points="388.74,232.23 356.54,191.6 324.33,150.96 375.63,143.38 426.93,135.81 407.84,184.02 	"/>
	<g>
		<g>
			<g>
				<circle class="st11" cx="67.04" cy="15.55" r="18.27"/>
			</g>
		</g>
	</g>
	<g>
		<g>
			<g>
				<circle class="st12" cx="93.09" cy="63.09" r="34.61"/>
			</g>
		</g>
	</g>
	<g>
		<g>
			<g>
				<circle class="st13" cx="93.09" cy="1.15" r="58.41"/>
			</g>
		</g>
	</g>
</g>
</svg>
